<svg width="26" height="26" viewBox="0 0 26 26" fill="none" xmlns="http://www.w3.org/2000/svg">
<path fill-rule="evenodd" clip-rule="evenodd" d="M22.5335 5.90217C22.3779 5.69428 22.1757 5.52569 21.9433 5.40989C21.7108 5.2941 21.4545 5.2343 21.1948 5.2353H6.9069L6.87716 5.11632C6.72666 4.51148 6.37797 3.97444 5.88668 3.59087C5.3954 3.2073 4.78982 2.99929 4.16654 3H2.55882C2.41061 3 2.26848 3.05888 2.16368 3.16368C2.05888 3.26848 2 3.41062 2 3.55883C2 3.70704 2.05888 3.84917 2.16368 3.95397C2.26848 4.05877 2.41061 4.11765 2.55882 4.11765H4.16654C4.5405 4.11719 4.90385 4.24192 5.19868 4.47197C5.4935 4.70203 5.70283 5.02415 5.79329 5.38701L8.29927 15.4131C8.44977 16.0179 8.79847 16.555 9.28976 16.9386C9.78105 17.3221 10.3866 17.5301 11.0099 17.5294H19.3235C19.4717 17.5294 19.6139 17.4705 19.7187 17.3657C19.8235 17.2609 19.8824 17.1188 19.8824 16.9706C19.8824 16.8224 19.8235 16.6802 19.7187 16.5754C19.6139 16.4706 19.4717 16.4118 19.3235 16.4118H11.0099C10.636 16.4122 10.2726 16.2875 9.9778 16.0574C9.68297 15.8274 9.47364 15.5053 9.38318 15.1424L9.14177 14.1765H18.7549C19.3616 14.1745 19.9513 13.9761 20.4357 13.6109C20.9201 13.2457 21.2732 12.7334 21.4421 12.1507L22.8069 7.37236C22.8792 7.12296 22.8921 6.86011 22.8446 6.60483C22.7971 6.34955 22.6906 6.10892 22.5335 5.90217ZM19.323 22.0004C20.2488 22.0004 20.9994 21.2498 20.9994 20.3239C20.9994 19.398 20.2488 18.6475 19.323 18.6475C18.3971 18.6475 17.6465 19.398 17.6465 20.3239C17.6465 21.2498 18.3971 22.0004 19.323 22.0004ZM10.941 20.3237C10.941 21.2496 10.1904 22.0002 9.26452 22.0002C8.33863 22.0002 7.58805 21.2496 7.58805 20.3237C7.58805 19.3979 8.33863 18.6473 9.26452 18.6473C10.1904 18.6473 10.941 19.3979 10.941 20.3237Z" fill="#ACACAC"/>
</svg>
