<svg width="30" height="30" viewBox="0 0 30 30" fill="none" xmlns="http://www.w3.org/2000/svg">
<rect x="0.75" y="0.75" width="28.5" height="28.5" rx="14.25" stroke="#00B866" stroke-width="1.5"/>
<path fill-rule="evenodd" clip-rule="evenodd" d="M14.9985 8.82373C15.4218 8.82373 15.7649 9.16687 15.7649 9.59015V20.4102C15.7649 20.8335 15.4218 21.1767 14.9985 21.1767C14.5752 21.1767 14.232 20.8335 14.232 20.4102V9.59015C14.232 9.16687 14.5752 8.82373 14.9985 8.82373Z" fill="#00B866"/>
<path fill-rule="evenodd" clip-rule="evenodd" d="M8.82324 15.0002C8.82324 14.5769 9.16638 14.2337 9.58967 14.2337H20.4098C20.833 14.2337 21.1762 14.5769 21.1762 15.0002C21.1762 15.4235 20.833 15.7666 20.4098 15.7666H9.58967C9.16638 15.7666 8.82324 15.4235 8.82324 15.0002Z" fill="#00B866"/>
</svg>
