<svg width="20" height="20" viewBox="0 0 20 20" fill="none" xmlns="http://www.w3.org/2000/svg">
<path fill-rule="evenodd" clip-rule="evenodd" d="M5.08543 1.55126H9.15506C9.39413 1.55126 9.58807 1.36396 9.58807 1.13305C9.58807 0.902014 9.39414 0.714706 9.15506 0.714706L5.08543 0.714848C4.84636 0.714848 4.65242 0.901865 4.65242 1.1332C4.65257 1.36395 4.8465 1.55126 5.08543 1.55126ZM6.27923 1.55176V2.98968H6.22934C5.72814 2.98968 5.32206 3.39924 5.32206 3.90405V5.07216C3.5464 5.19103 2.14265 6.67315 2.14265 8.48411V16.7583C2.14265 17.5535 2.78549 18.1982 3.57839 18.1982H9.99263C10.7857 18.1982 11.4284 17.5535 11.4284 16.7583L11.4282 8.48411C11.4282 6.64505 9.98094 5.14521 8.16634 5.06748V3.90405C8.16634 3.39924 7.75996 2.98968 7.25906 2.98968H7.20916V1.55176H6.27923ZM9.78469 12.9962C9.95115 12.9962 10.086 12.8612 10.086 12.6943V8.76716C10.086 8.60023 9.95115 8.46494 9.78469 8.46494H3.79658C3.63012 8.46494 3.49551 8.60023 3.49551 8.76716V12.6943C3.49551 12.8612 3.63012 12.9962 3.79658 12.9962H9.78469Z" fill="#1D1D1D"/>
<path fill-rule="evenodd" clip-rule="evenodd" d="M17.9947 4.28529H11.8284C11.6209 4.28529 11.4431 4.46313 11.4431 4.67066V5.27841H18.3949V4.67066C18.3949 4.46314 18.217 4.28529 17.9947 4.28529ZM16.8535 16.252H12.97L11.4284 5.46107H18.3803L16.8535 16.252ZM13.4442 17.7847C13.1922 17.7847 12.9847 17.5772 12.9847 17.3252L12.9847 16.4358H16.8237V17.3252C16.8237 17.5772 16.6162 17.7847 16.3642 17.7847H13.4442Z" fill="#1D1D1D"/>
</svg>
