<svg width="34" height="34" viewBox="0 0 34 34" fill="none" xmlns="http://www.w3.org/2000/svg">
<path d="M24.5 12.4833C21.725 12.2083 18.9333 12.0666 16.15 12.0666C14.5 12.0666 12.85 12.1499 11.2 12.3166L9.5 12.4833" stroke="#292D32" stroke-width="1.5" stroke-linecap="round" stroke-linejoin="round"/>
<path d="M14.083 11.6417L14.2663 10.55C14.3997 9.75834 14.4997 9.16667 15.908 9.16667H18.0913C19.4997 9.16667 19.608 9.79167 19.733 10.5583L19.9163 11.6417" stroke="#292D32" stroke-width="1.5" stroke-linecap="round" stroke-linejoin="round"/>
<path d="M22.7087 15.1165L22.167 23.5082C22.0753 24.8165 22.0003 25.8332 19.6753 25.8332H14.3253C12.0003 25.8332 11.9253 24.8165 11.8337 23.5082L11.292 15.1165" stroke="#292D32" stroke-width="1.5" stroke-linecap="round" stroke-linejoin="round"/>
<path d="M15.6084 21.25H18.3834" stroke="#292D32" stroke-width="1.5" stroke-linecap="round" stroke-linejoin="round"/>
<path d="M14.917 17.9167H19.0837" stroke="#292D32" stroke-width="1.5" stroke-linecap="round" stroke-linejoin="round"/>
</svg>
