<svg width="26" height="26" viewBox="0 0 26 26" fill="none" xmlns="http://www.w3.org/2000/svg">
<path d="M20.5686 6.53C21.4853 7.50775 22 8.83155 22 10.2116C22 11.5916 21.4853 12.9154 20.5686 13.8931L13.5823 21.3739C13.266 21.7126 12.7292 21.7126 12.4129 21.3739L5.42663 13.8931C4.74579 13.1649 4.28226 12.2396 4.09407 11.2329C3.90588 10.2262 4.00139 9.18285 4.36865 8.23354C4.7359 7.28422 5.35859 6.47108 6.15875 5.89592C6.95891 5.32075 7.901 5.0091 8.86708 5C10.1589 5.00833 11.3954 5.5582 12.3075 6.53C12.5736 6.80967 12.8054 7.12381 12.9976 7.465C13.1898 7.12381 13.4217 6.80967 13.6877 6.53C14.1371 6.04556 14.6727 5.66087 15.2634 5.39829C15.854 5.13572 16.4879 5.0005 17.1281 5.0005C17.7684 5.0005 18.4023 5.13572 18.9929 5.39829C19.5835 5.66087 20.1192 6.04556 20.5686 6.53Z" fill="#F72055"/>
</svg>
