<svg width="22" height="22" viewBox="0 0 22 22" fill="none" xmlns="http://www.w3.org/2000/svg">
<path d="M10.1725 7.3322H0V6.11717H4.47533V3.40568L5.93228 2L6.82851 2.86575L5.74721 3.91374V6.11717H10.1742L10.1725 7.3322ZM7.6958 17.7306C6.14793 16.2249 5.23169 14.2201 5.12266 12.102V11.0234H9.19297L9.51791 7.95912L0.7491 7.95892L1.91789 19H7.86407L7.8564 17.8483C7.83447 17.8269 7.71864 17.7519 7.69564 17.7306L7.6958 17.7306ZM13.3678 11.636H5.75789V12.0693C5.87629 14.2577 6.91518 16.3047 8.63449 17.7373H8.60277L8.62257 18.9996L18.1437 18.9994L18.1219 17.7383L18.1221 17.7385C19.8421 16.3062 20.8814 14.2585 21 12.0694V11.6361L13.3678 11.636ZM20.1458 8.2293C20.2925 8.0896 20.3728 7.8975 20.3677 7.69862C20.3626 7.49974 20.2727 7.31177 20.119 7.17926C19.9655 7.04654 19.7617 6.981 19.5564 6.99826C19.3509 7.01531 19.1621 7.11351 19.0343 7.26966L15.9224 11.0225H17.8037L20.1458 8.2293Z" fill="#1D1D1D"/>
</svg>
