<svg width="60" height="60" viewBox="0 0 60 60" fill="none" xmlns="http://www.w3.org/2000/svg">
<rect width="60" height="60" rx="30" fill="#F72055"/>
<path fill-rule="evenodd" clip-rule="evenodd" d="M22.6879 19H24.7858C27.1929 19 28.4627 20.2698 28.4517 22.6769V24.7748C28.4517 27.1819 27.1819 28.4517 24.7748 28.4517H22.6769C20.2698 28.4517 19 27.1819 19 24.7748V22.6769C19 20.2698 20.2698 19 22.6879 19ZM35.309 19H37.4069C39.814 19 41.0838 20.2698 41.0838 22.6769V24.7748C41.0838 27.1819 39.814 28.4517 37.4069 28.4517H35.309C32.9019 28.4517 31.6321 27.1819 31.6321 24.7748V22.6769C31.6321 20.2698 32.9019 19 35.309 19ZM37.4069 31.6202H35.309C32.9019 31.6202 31.6321 32.89 31.6321 35.2971V37.395C31.6321 39.8021 32.9019 41.0719 35.309 41.0719H37.4069C39.814 41.0719 41.0838 39.8021 41.0838 37.395V35.2971C41.0838 32.89 39.814 31.6202 37.4069 31.6202ZM22.6879 31.6202H24.7858C27.1929 31.6202 28.4627 32.89 28.4517 35.3081V37.4061C28.4517 39.8131 27.1819 41.0829 24.7748 41.0829H22.6769C20.2698 41.0829 19 39.8131 19 37.395V35.2971C19 32.89 20.2698 31.6202 22.6879 31.6202Z" fill="white"/>
</svg>
