<svg width="60" height="60" viewBox="0 0 60 60" fill="none" xmlns="http://www.w3.org/2000/svg">
<rect width="60" height="60" rx="30" fill="#F72055"/>
<path fill-rule="evenodd" clip-rule="evenodd" d="M17.8812 19.1205C18.1347 18.9241 18.1809 18.5594 17.9844 18.3059C17.788 18.0524 17.4233 18.0062 17.1698 18.2027L12.3398 21.9462L12.3255 21.9576C12.1576 22.0965 12.0233 22.2713 11.9316 22.4683C11.8399 22.6652 11.7926 22.8801 11.7926 23.0971C11.7926 23.3141 11.8399 23.529 11.9316 23.7259C12.0233 23.9229 12.1576 24.0977 12.3255 24.2366L12.3398 24.248L17.1698 27.9916C17.4233 28.188 17.788 28.1418 17.9844 27.8883C18.1809 27.6348 18.1347 27.2701 17.8812 27.0736L13.0603 23.3372C13.0294 23.3104 13.0031 23.276 12.9844 23.2357C12.9646 23.1932 12.9539 23.1457 12.9539 23.0971C12.9539 23.0485 12.9646 23.001 12.9844 22.9585C13.0031 22.9181 13.0294 22.8838 13.0603 22.857L17.8812 19.1205ZM23.272 18.6616C23.272 18.4409 23.1468 18.2392 22.949 18.1413C22.7512 18.0433 22.5149 18.066 22.3394 18.1998L16.5192 22.6353C16.3751 22.7451 16.2905 22.9159 16.2905 23.0971C16.2905 23.2783 16.3751 23.4491 16.5192 23.5589L22.3394 27.9944C22.5149 28.1282 22.7512 28.1509 22.949 28.053C23.1468 27.955 23.272 27.7533 23.272 27.5326V25.4961C24.5525 25.6941 25.5077 26.5302 26.1884 27.4375C26.5748 27.9526 26.8568 28.4711 27.0423 28.8624C27.1346 29.0573 27.2021 29.2187 27.2459 29.3295C27.2678 29.3849 27.2837 29.4276 27.2938 29.4553L27.3046 29.4855L27.3067 29.4916C27.3975 29.7609 27.6702 29.9257 27.9508 29.8798C28.2316 29.834 28.4378 29.5913 28.4378 29.3068C28.4378 27.4105 28.207 25.306 27.3858 23.6557C26.9711 22.8222 26.3973 22.0875 25.6118 21.5625C24.9579 21.1253 24.1808 20.8494 23.272 20.7677V18.6616ZM26.3461 24.173C26.714 24.9123 26.9521 25.784 27.0952 26.7113C26.2094 25.5414 24.7732 24.2906 22.6913 24.2906C22.3706 24.2906 22.1107 24.5506 22.1107 24.8713V26.36L17.8291 23.0971L22.1107 19.8342V21.3229C22.1107 21.6436 22.3706 21.9035 22.6913 21.9035C23.6507 21.9035 24.3891 22.142 24.9665 22.5279C25.5475 22.9163 25.9999 23.4773 26.3461 24.173ZM35.31 18.9991H37.4079C39.815 18.9991 41.0848 20.2689 41.0848 22.676V24.7739C41.0848 27.181 39.815 28.4508 37.4079 28.4508H35.31C32.9029 28.4508 31.6331 27.181 31.6331 24.7739V22.676C31.6331 20.2689 32.9029 18.9991 35.31 18.9991ZM35.31 31.6194H37.4079C39.815 31.6194 41.0848 32.8892 41.0848 35.2963V37.3942C41.0848 39.8013 39.815 41.0711 37.4079 41.0711H35.31C32.9029 41.0711 31.6331 39.8013 31.6331 37.3942V35.2963C31.6331 32.8892 32.9029 31.6194 35.31 31.6194ZM24.7868 31.6194H22.6889C20.2708 31.6194 19.001 32.8892 19.001 35.2963V37.3942C19.001 39.8123 20.2708 41.0821 22.6779 41.0821H24.7758C27.1829 41.0821 28.4527 39.8123 28.4527 37.4052V35.3073C28.4637 32.8892 27.1939 31.6194 24.7868 31.6194Z" fill="white"/>
</svg>
