<svg width="26" height="26" viewBox="0 0 26 26" fill="none" xmlns="http://www.w3.org/2000/svg">
<path fill-rule="evenodd" clip-rule="evenodd" d="M9.06152 8.275C9.06152 5.917 10.9785 4 13.3365 4C15.6945 4 17.6115 5.917 17.6115 8.275C17.6025 10.588 15.7935 12.46 13.4895 12.541H13.4715H13.4265C13.3725 12.532 13.3005 12.532 13.2285 12.541C10.8705 12.46 9.06152 10.588 9.06152 8.275ZM8.773 14.9342C11.302 13.2602 15.397 13.2602 17.908 14.9342C19.042 15.6902 19.663 16.7162 19.672 17.8232C19.672 18.9392 19.042 19.9652 17.908 20.7302C16.648 21.5762 14.992 21.9992 13.336 21.9992C11.68 21.9992 10.024 21.5762 8.764 20.7302C7.63 19.9742 7 18.9482 7 17.8412C7 16.7342 7.63 15.6992 8.773 14.9342Z" fill="#ACACAC"/>
</svg>
